<svg aria-hidden="true" style="position: absolute; width: 0; height: 0; overflow: hidden;" version="1.1" xmlns="http://www.w3.org/2000/svg" xmlns:xlink="http://www.w3.org/1999/xlink">
<defs>
<symbol id="icon-calendar" viewBox="0 0 32 32">
<title>calendar</title>
<path d="M28 30h-24c-1.104 0-2-0.896-2-2v-21c0-1.104 0.896-2 2-2h2v1c0 1.657 1.343 3 3 3s3-1.343 3-3v-1h8v1c0 1.657 1.344 3 3 3s3-1.343 3-3v-1h2c1.104 0 2 0.896 2 2v21c0 1.104-0.896 2-2 2zM28 12h-24v16h24v-16zM13.069 19.829c0.197-0.314 0.296-0.646 0.296-0.993 0-0.773-0.416-1.16-1.248-1.16-0.723 0-1.414 0.287-2.074 0.861v-1.629c0.73-0.473 1.555-0.709 2.473-0.709 0.859 0 1.53 0.216 2.013 0.647s0.724 1.015 0.724 1.749c0 0.98-0.588 1.994-1.764 3.041l-1.729 1.535v0.035h3.41v1.535h-5.531v-1.441l2.408-2.303c0.484-0.464 0.825-0.853 1.022-1.168zM19.837 23.166c0.264-0.203 0.396-0.486 0.396-0.85 0-0.375-0.163-0.664-0.489-0.867s-0.774-0.305-1.345-0.305h-0.756v-1.418h0.697c1.094 0 1.641-0.363 1.641-1.090 0-0.684-0.42-1.025-1.26-1.025-0.562 0-1.109 0.182-1.641 0.545v-1.512c0.59-0.297 1.277-0.445 2.062-0.445 0.859 0 1.528 0.193 2.007 0.58s0.718 0.889 0.718 1.506c0 1.098-0.557 1.785-1.67 2.062v0.029c0.594 0.074 1.062 0.29 1.406 0.647s0.516 0.796 0.516 1.315c0 0.785-0.287 1.406-0.861 1.863s-1.367 0.686-2.379 0.686c-0.867 0-1.572-0.141-2.115-0.422v-1.611c0.562 0.41 1.219 0.615 1.969 0.615 0.472 0.002 0.84-0.1 1.104-0.303zM22.969 8c-1.088 0-1.969-0.881-1.969-1.969v-2.062c0-1.088 0.881-1.969 1.969-1.969s1.969 0.881 1.969 1.969v2.062c0 1.088-0.881 1.969-1.969 1.969zM8.969 8c-1.088 0-1.969-0.881-1.969-1.969v-2.062c0-1.088 0.881-1.969 1.969-1.969s1.969 0.881 1.969 1.969v2.062c0 1.088-0.882 1.969-1.969 1.969z"></path>
</symbol>
<symbol id="icon-drink" viewBox="0 0 32 32">
<title>drink</title>
<path d="M23.055 8.906c0.557 0 1.008 0.451 1.008 1.008l-1.827 20.093c0 0.557-0.451 1.008-1.008 1.008h-10.457c-0.557 0-1.008-0.451-1.008-1.008l-1.825-20.093c0-0.557 0.451-1.008 1.008-1.008h9.010l1.066-5.436 4.839-2.485-0.348 1.298-3.592 1.801-0.938 4.822h4.072zM17.514 15.961h4.029l-1.134 13.038h-8.818l-1.134-13.038h6.029l1.259-6.047h-8.8l1.826 20.093h10.456l1.827-20.093h-4.282l-1.258 6.047z"></path>
</symbol>
<symbol id="icon-drink1" viewBox="0 0 32 32">
<title>drink1</title>
<path d="M26.562 8.021l-10.496 9.213v11.939l5.841 2.827h-13.689l5.842-2.826v-11.94l-10.622-9.213h16.202l3.243-5.619 0.872 0.503-2.953 5.115h5.76zM24.111 8.965l-3.863 0.015-1.19 2.062h2.745l2.308-2.077zM16.066 15.069c0.591 0 1.069-0.479 1.069-1.070s-0.479-1.070-1.069-1.070-1.070 0.479-1.070 1.070c0 0.592 0.48 1.070 1.070 1.070zM5.89 8.965l2.327 2.077h9.679l1.188-2.057-13.194-0.020z"></path>
</symbol>
<symbol id="icon-mug" viewBox="0 0 32 32">
<title>mug</title>
<path d="M25.761 25.005h-2.724v2.164c0 1.546-1.378 2.798-2.924 2.798h-10.308c-1.546 0-2.799-1.252-2.799-2.798v-15.1h2.998v14.905h1.988l0.002-14.905c0.534 0.385 1.334 0.671 2.008 0.823v14.083h1.988v-14.025c0.745-0.123 1.428-0.403 2.016-0.807v14.832h1.988v-14.906h5.766c1.236 0 2.239 1.002 2.239 2.239v8.457c0.001 1.237-1.002 2.24-2.238 2.24zM25.991 14.010h-2.955v8.985h2.955v-8.985zM21.222 11.142c-0.979 0-1.863-0.391-2.517-1.021-0.812 1.147-2.142 1.902-3.653 1.902-1.457 0-2.738-0.707-3.557-1.784-0.648 0.599-1.508 0.973-2.46 0.973-1.755 0-3.219-1.243-3.562-2.896-0.534-0.35-0.887-0.952-0.887-1.637 0-1.082 0.877-1.959 1.959-1.959 0.080 0 0.157 0.014 0.234 0.023 0.605-0.481 1.359-0.785 2.189-0.801 0.373-1.106 1.408-1.909 2.641-1.909 0.949 0 1.784 0.475 2.291 1.197 0.368-0.1 0.751-0.162 1.151-0.162 0.418 0 0.816 0.070 1.199 0.179 0.505-0.732 1.348-1.214 2.304-1.214 1.207 0 2.226 0.768 2.619 1.838 0.017 0 0.031-0.005 0.048-0.005 2.010 0 3.639 1.629 3.639 3.638s-1.629 3.638-3.638 3.638z"></path>
</symbol>
<symbol id="icon-icecream" viewBox="0 0 32 32">
<title>icecream</title>
<path d="M20.804 10.742c1.448-3.62-1.789-4.217-1.789-4.174 1.022-2.556-1.022-4.26-2.896-4.26s-1.789 0.853-1.789 0.853 1.022-0.213 1.022 0.596c0 0.81-0.938 0.767-1.874 1.704-0.938 0.937-0.49 0.81-0.554 0.81 1.948-0.128 3.088 1.885 5.239 1.149-2.13 1.065-2.641-0.628-4.941-0.713-0.298 0-2.002-0.33-2.002 2.928 2.492 0.288 3.578 2.002 6.943 1.619-3.791 1.405-8.54-4.409-9.2 1.959 0 1.363 1.021 2.048 1.021 2.048s11.799 0 11.757 0c2.342-1.022 1.193-4.732-0.937-4.519zM16.072 31l5.328-15.069h-10.773l5.445 15.069z"></path>
</symbol>
<symbol id="icon-cog" viewBox="0 0 32 32">
<title>cog</title>
<path d="M25.995 19.068h-1.324c-0.215 0.779-0.523 1.518-0.918 2.203l1.224 1.223c0.783 0.783 0.783 2.053 0 2.836l-0.709 0.709c-0.783 0.783-2.053 0.783-2.836 0l-1.232-1.231c-0.683 0.389-1.419 0.692-2.194 0.903v1.284c0 1.107-0.897 2.005-2.005 2.005h-1.002c-1.107 0-2.006-0.897-2.006-2.005v-1.284c-0.774-0.211-1.511-0.515-2.194-0.903l-1.231 1.231c-0.782 0.783-2.052 0.783-2.835 0l-0.71-0.709c-0.783-0.783-0.783-2.053 0-2.836l1.224-1.223c-0.395-0.686-0.703-1.424-0.919-2.203h-1.323c-1.108 0-2.005-0.897-2.005-2.004v-1.003c0-1.107 0.897-2.005 2.005-2.005h1.308c0.207-0.771 0.503-1.505 0.887-2.186l-1.177-1.176c-0.783-0.783-0.783-2.053 0-2.836l0.709-0.708c0.783-0.783 2.053-0.783 2.835 0l1.153 1.153c0.706-0.411 1.468-0.731 2.272-0.95v-1.348c0.001-1.108 0.9-2.005 2.007-2.005h1.002c1.107 0 2.005 0.897 2.005 2.005v1.347c0.806 0.22 1.567 0.54 2.272 0.951l1.153-1.153c0.783-0.783 2.053-0.783 2.836 0l0.709 0.708c0.783 0.783 0.783 2.053 0 2.836l-1.176 1.176c0.384 0.681 0.68 1.415 0.888 2.187h1.308c1.107 0 2.005 0.898 2.005 2.005v1.003c-0.001 1.106-0.898 2.003-2.006 2.003zM15.5 11.080c-3.045 0-5.514 2.469-5.514 5.514s2.469 5.514 5.514 5.514 5.514-2.469 5.514-5.514-2.469-5.514-5.514-5.514zM15.5 19.037c-1.384 0-2.507-1.121-2.507-2.506 0-1.384 1.123-2.506 2.507-2.506s2.506 1.122 2.506 2.506c0 1.385-1.122 2.506-2.506 2.506z"></path>
</symbol>
<symbol id="icon-wallet" viewBox="0 0 32 32">
<title>wallet</title>
<path d="M18 22c-1.104 0-2-0.896-2-2v-2c0-1.105 0.896-2 2-2h12v6h-12zM19.5 17.583c-0.828 0-1.5 0.672-1.5 1.5 0 0.829 0.672 1.5 1.5 1.5 0.829 0 1.5-0.671 1.5-1.5 0-0.828-0.671-1.5-1.5-1.5zM15 18v2c0 1.656 1.344 3 3 3h10v4c0 1.656-1.343 3-3 3h-21c-1.656 0-3-1.344-3-3v-19c0-1.657 1.344-3 3-3h9.632l-2.349 0.979h-7.782c-0.828 0-1.5 0.672-1.5 1.5s0.672 1.5 1.5 1.5h24.499v6.021h-10c-1.656 0-3 1.343-3 3zM5.001 11h-2v2h1v-1h1v-1zM5.001 14h-2v2h1.041l-0.041-1 1 0.021v-1.021zM5.001 17h-2v2h1.021l-0.021-1h1v-1zM5.001 20h-2v2h1.021l-0.021-1 1 0.021v-1.021zM5.001 23h-2v2h1v-1h1v-1zM5.001 26h-2v2h1.021l-0.021-0.979h1v-1.021zM9.001 7.938l11.75-4.938 2.25 4.938h-14zM22.646 5h2.354c0.876 0 1.656 0.381 2.205 0.979h-4.081l-0.478-0.979z"></path>
</symbol>
<symbol id="icon-location" viewBox="0 0 32 32">
<title>location</title>
<path d="M11.163 11.554c0-2.655 2.166-4.807 4.837-4.807s4.837 2.152 4.837 4.807-2.166 4.806-4.837 4.806-4.837-2.152-4.837-4.806zM7.777 12.154c0 2.011 2.454 6.25 2.454 6.25l5.769 9.614 5.438-9.613c0 0 2.785-4.27 2.785-6.25 0-4.513-3.682-8.171-8.223-8.171s-8.223 3.657-8.223 8.17z"></path>
</symbol>
<symbol id="icon-basket" viewBox="0 0 32 32">
<title>basket</title>
<path d="M0 14v-3h3.75l7.531-7.532c-0.050-0.149-0.093-0.301-0.093-0.468 0-0.829 0.671-1.5 1.5-1.5 0.828 0 1.5 0.671 1.5 1.5s-0.672 1.5-1.5 1.5c-0.111 0-0.209-0.041-0.312-0.063l-6.564 6.563h19.354l-6.525-6.579c-0.129 0.036-0.252 0.079-0.391 0.079-0.828 0-1.5-0.672-1.5-1.5s0.672-1.5 1.5-1.5 1.5 0.671 1.5 1.5c0 0.153-0.045 0.293-0.088 0.433l7.567 7.567h3.771v3h-31zM24.869 28.902c-0.293 1.172-1.105 1.107-1.105 1.107l-16.595 0.032c-0.846 0-1.073-1.072-1.073-1.072l-4.387-13.955 27.574-0.026-4.414 13.914zM9.999 17h-1v5h1v-5zM9.999 23h-1v5h1v-5zM11.999 17h-0.999v5h0.999v-5zM11.999 23h-0.999v5h0.999v-5zM13.999 17h-1v5h1v-5zM13.999 23h-1v5h1v-5zM16 17h-1v5h1v-5zM16 23h-1v5h1v-5zM18 17h-1v5h1v-5zM18 23h-1v5h1v-5zM20 17h-1v5h1v-5zM20 23h-1v5h1v-5zM22 17h-1v5h1v-5zM22 23h-1v5h1v-5z"></path>
</symbol>
<symbol id="icon-phone" viewBox="0 0 32 32">
<title>phone</title>
<path d="M15.331 19.76c-0.026-0.018-3.034-5.075-3.044-5.14-0.622-1.359-1.124-2.749-0.078-3.366l-4.341-7.32c-1.125 0.841-4.307 5.405 1.649 15.748 6.274 10.9 12.245 10.447 13.442 9.709l-4.23-7.145c-1 0.588-1.842-0.381-3.398-2.486zM25.862 26.617l0.001-0.006c0 0-3.303-5.566-3.305-5.568-0.262-0.441-0.825-0.58-1.264-0.324l-2.024 1.197 4.242 7.166c0 0 2.024-1.191 2.023-1.195h0.004c0.465-0.276 0.572-0.846 0.323-1.27zM14.786 9.736v-0.004c0.465-0.275 0.574-0.845 0.325-1.265l0.002-0.006c0 0-3.398-5.729-3.4-5.73-0.261-0.443-0.826-0.58-1.263-0.324l-2.024 1.197 4.336 7.324c0 0 2.023-1.189 2.024-1.192z"></path>
</symbol>
<symbol id="icon-image" viewBox="0 0 32 32">
<title>image</title>
<path d="M28 29v-1h-1v-1h-1v-13h1v-1h1v-1h1v17h-1zM27 13h-1v1h-20v-1h-1v-1h-1v-1h24v1h-1v1zM5 13v1h1v13h-1v1h-1v1h-1v-17h1v1h1zM5 28h1v-1h20v1h1v1h1v1h-24v-1h1v-1zM12.856 22.982l2.286-3.697 2.286 2.304 3.143-4.731 3.286 8.142h-14.572l1.857-3.715 1.714 1.697zM11.491 19.009c-0.829 0-1.5-0.672-1.5-1.5s0.671-1.5 1.5-1.5c0.828 0 1.5 0.672 1.5 1.5s-0.672 1.5-1.5 1.5zM25 11l-7.322-5.45c-0.344 0.277-0.775 0.45-1.25 0.45-0.661 0-1.244-0.325-1.607-0.821l-7.821 5.821h-1l8.493-6.518c-0.038-0.155-0.064-0.315-0.064-0.482 0-1.104 0.895-2 1.999-2 1.105 0 2 0.896 2 2 0 0.359-0.103 0.692-0.269 0.984l7.841 6.016h-1z"></path>
</symbol>
<symbol id="icon-direction" viewBox="0 0 32 32">
<title>direction</title>
<path d="M17.987 3h-5v3h5v-3zM17.987 15v-2h-5v2h5zM12.987 30h5v-8h-5v8zM24.987 12l-2.187-2.5 2.187-2.5h-16l-2.6 2.5 2.6 2.5h16zM22.987 16h-16l2.188 2.5-2.188 2.5h16l2.625-2.5-2.625-2.5z"></path>
</symbol>
<symbol id="icon-smiley" viewBox="0 0 32 32">
<title>smiley</title>
<path d="M16 4c-6.628 0-12 5.373-12 12s5.372 12 12 12c6.627 0 12-5.373 12-12s-5.373-12-12-12zM20 9.812c0.828 0 1.5 0.896 1.5 2s-0.672 2-1.5 2-1.5-0.896-1.5-2 0.672-2 1.5-2zM11.925 9.825c0.828 0 1.5 0.896 1.5 2s-0.672 2-1.5 2-1.5-0.896-1.5-2 0.672-2 1.5-2zM15.875 23.312c-4.105 0-6.857-2.687-7.352-7.156h0.969c0.785 3.458 2.91 5.188 6.375 5.188s5.59-1.729 6.375-5.188h1c-0.494 4.47-3.262 7.156-7.367 7.156z"></path>
</symbol>
<symbol id="icon-pig" viewBox="0 0 32 32">
<title>pig</title>
<path d="M24.674 21.909c0 0 3.33-2.278 3.33-6.771 0-6.688-7.088-9.161-10.899-9.095-3.812 0.067-4.948 1.070-4.948 1.070s-1.297-0.943-2.672-1.733c-1.052-0.41-1.296-0.469-2.027-0.234-0.585 0-0.217 0.974 0.018 1.325 0.233 0.351 1.366 2.29 1.366 2.29s-2.378 2.449-2.554 4.059c0-0.029-1.12-0.009-1.734-0.009s-0.556 0.669-0.556 0.669l0.017 4.714c0 0-0.038 0.669 0.519 0.669 0.556 0 1.738 0.013 1.738 0.013s1.663 2.415 2.717 2.854c0 0.029-0.911 2.503-0.911 2.503s-0.439 0.761 0.351 1.054c0.79 0.292 2.851 1.157 3.729 1.421s1.003-0.334 1.003-0.334l0.869-1.877 5.685 0.009 0.869 1.935c0 0 0.167 0.898 1.337 0.401 1.171-0.497 2.449-1.087 3.415-1.584 0.965-0.497 0.33-1.426 0.33-1.426l-0.992-1.923zM9.322 13.764c-0.533 0-0.965-0.433-0.965-0.966s0.432-0.965 0.965-0.965 0.966 0.432 0.966 0.965-0.433 0.966-0.966 0.966zM22.925 10.756c-0.308 0.365-0.509 0.096-0.757 0.023 0 0-1.051-0.975-2.595-1.43-1.599-0.47-3.282-0.243-3.282-0.243-0.248-0.073-0.549-0.081-0.551-0.464 0.013-0.473 0.587-0.477 0.58-0.493 0 0 1.894-0.175 3.479 0.291 1.559 0.458 2.75 1.454 2.75 1.454s0.637 0.439 0.376 0.862z"></path>
</symbol>
<symbol id="icon-bookmark" viewBox="0 0 32 32">
<title>bookmark</title>
<path d="M25 29h-16v-22h7v9.125l3.541-2.688 3.459 2.688v-9.125h4v20c0 1.104-0.896 2-2 2zM19.541 12.125l-2.541 2v-8.125h5v8.125l-2.459-2zM6 5v1c0 0.552 0.448 1 1 1h1v22h-1c-1.104 0-2-0.896-2-2v-22c0-1.104 0.896-2 2-2h18c0.738 0 1.376 0.404 1.723 1h-19.723c-0.552 0-1 0.447-1 1z"></path>
</symbol>
<symbol id="icon-addressbook" viewBox="0 0 32 32">
<title>addressbook</title>
<path d="M27 17.938v-3h2v3h-2zM27 11h2v3h-2v-3zM27 7h2v3h-2v-3zM24 29h-18c-1.104 0-2-0.896-2-2h0.5c0.828 0 1.5-0.672 1.5-1.5s-0.672-1.5-1.5-1.5h-0.5v-1h0.5c0.828 0 1.5-0.672 1.5-1.5s-0.672-1.5-1.5-1.5h-0.5v-1h0.5c0.828 0 1.5-0.672 1.5-1.5s-0.672-1.5-1.5-1.5h-0.5v-1h0.5c0.828 0 1.5-0.672 1.5-1.5s-0.672-1.5-1.5-1.5h-0.5v-1h0.5c0.828 0 1.5-0.672 1.5-1.5s-0.672-1.5-1.5-1.5h-0.5v-3c0-1.104 0.896-2 2-2h18c0.738 0 1.376 0.404 1.723 1h-19.723c-0.553 0-1 0.447-1 1 0 0.552 0.447 1 1 1h20v21c0 1.104-0.896 2-2 2zM15.5 9.562c-1.208 0-2.188 1.287-2.188 2.875s0.979 2.875 2.188 2.875 2.188-1.287 2.188-2.875-0.98-2.875-2.188-2.875zM18.99 16.688c-0.539-0.359-2.091-0.598-2.091-0.598s-1.006 1.075-1.433 1.075c-0.428 0-1.434-1.075-1.434-1.075s-1.552 0.238-2.090 0.598c-0.539 0.358-0.777 2.261-0.777 2.261h8.615c0.001-0.001-0.157-1.84-0.79-2.261zM5 9.5c0 0.276-0.224 0.5-0.5 0.5h-1c-0.276 0-0.5-0.224-0.5-0.5s0.224-0.5 0.5-0.5h1c0.276 0 0.5 0.224 0.5 0.5zM3.5 13h1c0.276 0 0.5 0.224 0.5 0.5s-0.224 0.5-0.5 0.5h-1c-0.276 0-0.5-0.224-0.5-0.5s0.224-0.5 0.5-0.5zM3.5 17h1c0.276 0 0.5 0.224 0.5 0.5s-0.224 0.5-0.5 0.5h-1c-0.276 0-0.5-0.224-0.5-0.5s0.224-0.5 0.5-0.5zM3.5 21h1c0.276 0 0.5 0.224 0.5 0.5s-0.224 0.5-0.5 0.5h-1c-0.276 0-0.5-0.224-0.5-0.5s0.224-0.5 0.5-0.5zM3.5 25h1c0.276 0 0.5 0.224 0.5 0.5s-0.224 0.5-0.5 0.5h-1c-0.276 0-0.5-0.224-0.5-0.5s0.224-0.5 0.5-0.5z"></path>
</symbol>
<symbol id="icon-envelope" viewBox="0 0 32 32">
<title>envelope</title>
<path d="M16.015 18.861l-4.072-3.343-8.862 10.463h25.876l-8.863-10.567-4.079 3.447zM29.926 6.019h-27.815l13.908 11.698 13.907-11.698zM20.705 14.887l9.291 11.084v-18.952l-9.291 7.868zM2.004 7.019v18.952l9.291-11.084-9.291-7.868z"></path>
</symbol>
<symbol id="icon-envelope1" viewBox="0 0 32 32">
<title>envelope1</title>
<path d="M20.139 18.934l9.787-7.999-13.926-9.833-13.89 9.833 9.824 8.032 8.205-0.033zM12.36 19.936l-9.279 10.962h25.876l-9.363-10.9-7.234-0.062zM20.705 19.803l9.291 11.084v-18.952l-9.291 7.868zM2.004 11.935v18.952l9.291-11.084-9.291-7.868z"></path>
</symbol>
<symbol id="icon-heart" viewBox="0 0 32 32">
<title>heart</title>
<path d="M16.042 8.345c0 0-2-4.262-6.5-4.262-4.917 0-7.5 4.167-7.5 8.333 0 6.917 14 15.5 14 15.5s13.916-8.5 13.916-15.5c0-4.25-2.666-8.333-7.416-8.333s-6.5 4.262-6.5 4.262z"></path>
</symbol>
<symbol id="icon-book" viewBox="0 0 32 32">
<title>book</title>
<path d="M15 25.875v-19.625c0 0-2.688-2.25-6.5-2.25s-6.5 2-6.5 2v19.875c0 0 2.688-1.938 6.5-1.938s6.5 1.938 6.5 1.938zM29 25.875v-19.625c0 0-2.688-2.25-6.5-2.25s-6.5 2-6.5 2v19.875c0 0 2.688-1.938 6.5-1.938s6.5 1.938 6.5 1.938zM31 8h-1v19h-12v1h-5v-1h-12v-19h-1v20h12v1h7.062l-0.062-1h12v-20z"></path>
</symbol>
<symbol id="icon-pictures" viewBox="0 0 32 32">
<title>pictures</title>
<path d="M28 8v16c0 1.104-0.896 2-2 2h-21c0 1.104 0.896 2 2 2h21c1.104 0 2-0.896 2-2v-16c0-1.104-0.896-2-2-2zM27 23v-16c0-1.104-0.896-2-2-2h-21c-1.104 0-2 0.896-2 2v16c0 1.104 0.896 2 2 2h21c1.104 0 2-0.896 2-2zM4 7h21v16h-21v-16zM15.627 17.311l-2.988-3.181-2.989 5.104-2.242-2.343-2.429 5.129h19.055l-4.297-11.245-4.11 6.536zM8 14c1.104 0 2-0.896 2-2s-0.896-2-2-2-2 0.896-2 2 0.896 2 2 2z"></path>
</symbol>
<symbol id="icon-compass" viewBox="0 0 32 32">
<title>compass</title>
<path d="M29 18.5c0 7.18-5.82 13-13 13s-13-5.82-13-13c0-6.33 4.525-11.597 10.515-12.757-0.325-0.479-0.515-1.057-0.515-1.681 0-1.657 1.343-3 3-3 1.656 0 3 1.343 3 3 0 0.623-0.19 1.201-0.516 1.681 5.991 1.16 10.516 6.427 10.516 12.757zM16 2.5c-0.829 0-1.5 0.672-1.5 1.5s0.671 1.5 1.5 1.5c0.828 0 1.5-0.672 1.5-1.5s-0.672-1.5-1.5-1.5zM17 7.55v2.45h-2v-2.45c-5.421 0.489-9.695 5.034-9.974 10.513h2.974v1.937h-2.896c0.663 5.067 4.767 8.986 9.896 9.449v-2.449h2v2.449c5.107-0.461 9.197-4.412 9.886-9.449h-2.886v-2h2.976c-0.248-5.508-4.536-9.959-9.976-10.45zM9.513 25.162l3.918-8.868 8.81-3.859-3.845 8.794-8.883 3.933zM17.32 17.354c-0.781-0.781-2.048-0.781-2.829 0s-0.781 2.047 0 2.828 2.048 0.781 2.829 0c0.781-0.781 0.781-2.046 0-2.828z"></path>
</symbol>
<symbol id="icon-navigation" viewBox="0 0 33 32">
<title>navigation</title>
<path d="M31.625 13.938c-0.508 0-1.731 0.563-2.603 1h-1.985c-0.12-2.543-1.141-4.845-2.755-6.6l1.312-1.313c0.932-0.305 2.302-0.799 2.679-1.176 0.586-0.586 0.586-1.536 0-2.122s-1.535-0.585-2.121 0c-0.359 0.359-0.826 1.624-1.133 2.548l-1.403 1.402c-1.763-1.605-4.070-2.612-6.616-2.718v-1.857c0.442-0.875 1.062-2.194 1.062-2.727 0-0.828-0.672-1.5-1.5-1.5s-1.5 0.672-1.5 1.5c0 0.508 0.563 1.731 1 2.603v1.985c-2.543 0.12-4.846 1.14-6.601 2.755l-1.312-1.313c-0.305-0.932-0.8-2.303-1.177-2.68-0.585-0.585-1.535-0.585-2.121 0s-0.586 1.536 0 2.122c0.359 0.36 1.623 0.826 2.547 1.133l1.403 1.403c-1.591 1.749-2.594 4.033-2.713 6.554h-1.985c-0.871-0.437-2.094-1-2.603-1-0.829 0-1.5 0.672-1.5 1.5s0.671 1.5 1.5 1.5c0.533 0 1.852-0.62 2.727-1.062h1.858c0.105 2.546 1.113 4.853 2.717 6.616l-1.402 1.403c-0.925 0.307-2.188 0.773-2.548 1.133-0.586 0.586-0.586 1.536 0 2.121 0.586 0.586 1.536 0.586 2.121 0 0.377-0.376 0.871-1.746 1.177-2.678l1.313-1.313c1.755 1.614 4.057 2.635 6.6 2.755v1.985c-0.437 0.871-1 2.095-1 2.603 0 0.828 0.672 1.5 1.5 1.5s1.5-0.672 1.5-1.5c0-0.533-0.62-1.852-1.062-2.727v-1.858c2.546-0.104 4.853-1.112 6.616-2.716l1.403 1.402c0.307 0.924 0.773 2.188 1.133 2.547 0.586 0.586 1.535 0.586 2.121 0s0.586-1.535 0-2.121c-0.377-0.377-1.747-0.871-2.679-1.177l-1.312-1.312c1.628-1.77 2.652-4.095 2.758-6.663h1.858c0.875 0.443 2.193 1.062 2.727 1.062 0.828 0 1.5-0.672 1.5-1.5s-0.673-1.499-1.501-1.499zM10.215 9.798l3.552 3.552c-0.342 0.457-0.569 0.997-0.655 1.587h-5.024c0.115-1.969 0.896-3.755 2.127-5.139zM8.084 15.875h5.022c0.078 0.615 0.308 1.178 0.662 1.65l-3.553 3.552c-1.243-1.398-2.028-3.208-2.131-5.202zM16.062 23.912c-1.992-0.116-3.795-0.914-5.186-2.17l3.55-3.55c0.467 0.362 1.023 0.606 1.636 0.694v5.026zM16.062 11.988c-0.613 0.088-1.169 0.333-1.636 0.695l-3.55-3.55c1.391-1.255 3.194-2.054 5.186-2.17v5.025zM25.037 14.938h-5.025c-0.088-0.612-0.332-1.169-0.694-1.636l3.55-3.55c1.255 1.39 2.053 3.194 2.169 5.186zM22.202 9.090l-3.552 3.553c-0.473-0.354-1.035-0.584-1.65-0.662v-5.022c1.994 0.103 3.804 0.888 5.202 2.131zM17 23.915v-5.021c0.615-0.078 1.178-0.308 1.65-0.661l3.552 3.552c-1.398 1.243-3.208 2.028-5.202 2.13zM22.867 21.123l-3.55-3.55c0.375-0.482 0.621-1.062 0.701-1.698h5.021c-0.101 2.017-0.903 3.844-2.172 5.248z"></path>
</symbol>
<symbol id="icon-heart1" viewBox="0 0 32 32">
<title>heart1</title>
<path d="M24 12.977c-3.866 0-7 3.158-7 7.055 0 2.22 1.020 4.197 2.609 5.491-2.056 1.525-3.609 2.488-3.609 2.488s-14-8.652-14-15.622c0-4.2 2.583-8.399 7.5-8.399 4.5 0 6.5 4.296 6.5 4.296s1.75-4.296 6.5-4.296 7.416 4.115 7.416 8.399c0 0.958-0.272 1.943-0.716 2.932-1.281-1.436-3.134-2.344-5.2-2.344zM24 13.984c3.313 0 6 2.707 6 6.047s-2.687 6.048-6 6.048c-3.314 0-6-2.708-6-6.048s2.686-6.047 6-6.047zM21 21.039h2v2.016h2v-2.016h2v-2.016h-2v-2.016h-2v2.016h-2v2.016z"></path>
</symbol>
<symbol id="icon-heart2" viewBox="0 0 32 32">
<title>heart2</title>
<path d="M24 12.977c-3.866 0-7 3.158-7 7.055 0 2.22 1.020 4.197 2.609 5.491-2.056 1.525-3.609 2.488-3.609 2.488s-14-8.652-14-15.622c0-4.2 2.583-8.399 7.5-8.399 4.5 0 6.5 4.296 6.5 4.296s1.75-4.296 6.5-4.296 7.416 4.115 7.416 8.399c0 0.958-0.272 1.943-0.716 2.932-1.281-1.436-3.134-2.344-5.2-2.344zM24 13.984c3.313 0 6 2.707 6 6.047s-2.687 6.048-6 6.048c-3.314 0-6-2.708-6-6.048s2.686-6.047 6-6.047zM21 21.039h6v-2.016h-6v2.016z"></path>
</symbol>
<symbol id="icon-clipboard" viewBox="0 0 32 32">
<title>clipboard</title>
<path d="M7.903 7.023c0 0.55 0 1.993 0 1.993h14.014c0 0 0-1.443 0-1.993s-0.445-0.997-0.996-0.997h-2.99c0 0 0.034-1.138 0.034-2.882 0-1.619-1.404-3.098-3.086-3.098s-2.978 1.406-2.978 3.089c0 1.619-0.012 2.891-0.012 2.891h-2.989c-0.551 0-0.997 0.446-0.997 0.997zM14.879 3.037c0.55 0 0.997 0.446 0.997 0.996 0 0.551-0.447 0.997-0.997 0.997s-0.997-0.446-0.997-0.997c0-0.55 0.447-0.996 0.997-0.996zM23.911 6.026v9.901c0 0 0.86-0.949 1.992-1.404v-9.493c0-1.101-0.955-1.993-2.055-1.993h-4.921v1.993h3.986c0.551 0 0.998 0.446 0.998 0.996zM12.823 30.006h-5.917c-0.55 0-0.996-0.445-0.996-0.996v-22.984c0-0.55 0.446-0.996 0.996-0.996h4.049v-1.993h-5.045c-1.101 0-1.993 0.893-1.993 1.993v24.976c0 1.101 0.892 1.994 1.993 1.994h9.081c-0.39-0.658-1.087-1.418-2.168-1.994zM23.911 29.010c0 0.551-0.447 0.996-0.997 0.996h-2.729c-0.502 0.672-0.975 1.34-1.41 1.994h5.074c1.1 0 2.055-0.893 2.055-1.994v-6.129c-0.66 0.543-1.328 1.156-1.992 1.83v3.303zM28.083 20.926c-1.123-2.496-0.48-4.523-0.32-6.863-6.579 3.275-10.751 13.103-10.751 13.103l-2.567-4.836-5.295 3.119c2.247 0.779 5.456 3.275 8.184 6.551 1.924-3.432 7.861-10.449 10.749-11.074z"></path>
</symbol>
<symbol id="icon-heart-outlined" viewBox="0 0 20 20">
<title>heart-outlined</title>
<path d="M17.19 4.156c-1.672-1.535-4.383-1.535-6.055 0l-1.135 1.041-1.136-1.041c-1.672-1.535-4.382-1.535-6.054 0-1.881 1.726-1.881 4.519 0 6.245l7.19 6.599 7.19-6.599c1.88-1.726 1.88-4.52 0-6.245zM16.124 9.375l-6.124 5.715-6.125-5.715c-0.617-0.567-0.856-1.307-0.856-2.094s0.138-1.433 0.756-1.999c0.545-0.501 1.278-0.777 2.063-0.777s1.517 0.476 2.062 0.978l2.1 1.825 2.099-1.826c0.546-0.502 1.278-0.978 2.063-0.978s1.518 0.276 2.063 0.777c0.618 0.566 0.755 1.212 0.755 1.999s-0.238 1.528-0.856 2.095z"></path>
</symbol>
<symbol id="icon-cart" viewBox="0 0 32 32">
<title>cart</title>
<path d="M12 29c0 1.657-1.343 3-3 3s-3-1.343-3-3c0-1.657 1.343-3 3-3s3 1.343 3 3z"></path>
<path d="M32 29c0 1.657-1.343 3-3 3s-3-1.343-3-3c0-1.657 1.343-3 3-3s3 1.343 3 3z"></path>
<path d="M32 16v-12h-24c0-1.105-0.895-2-2-2h-6v2h4l1.502 12.877c-0.915 0.733-1.502 1.859-1.502 3.123 0 2.209 1.791 4 4 4h24v-2h-24c-1.105 0-2-0.895-2-2 0-0.007 0-0.014 0-0.020l26-3.98z"></path>
</symbol>
<symbol id="icon-users" viewBox="0 0 36 32">
<title>users</title>
<path d="M24 24.082v-1.649c2.203-1.241 4-4.337 4-7.432 0-4.971 0-9-6-9s-6 4.029-6 9c0 3.096 1.797 6.191 4 7.432v1.649c-6.784 0.555-12 3.888-12 7.918h28c0-4.030-5.216-7.364-12-7.918z"></path>
<path d="M10.225 24.854c1.728-1.13 3.877-1.989 6.243-2.513-0.47-0.556-0.897-1.176-1.265-1.844-0.95-1.726-1.453-3.627-1.453-5.497 0-2.689 0-5.228 0.956-7.305 0.928-2.016 2.598-3.265 4.976-3.734-0.529-2.39-1.936-3.961-5.682-3.961-6 0-6 4.029-6 9 0 3.096 1.797 6.191 4 7.432v1.649c-6.784 0.555-12 3.888-12 7.918h8.719c0.454-0.403 0.956-0.787 1.506-1.146z"></path>
</symbol>
<symbol id="icon-user-check" viewBox="0 0 32 32">
<title>user-check</title>
<path d="M30 19l-9 9-3-3-2 2 5 5 11-11z"></path>
<path d="M14 24h10v-3.598c-2.101-1.225-4.885-2.066-8-2.321v-1.649c2.203-1.242 4-4.337 4-7.432 0-4.971 0-9-6-9s-6 4.029-6 9c0 3.096 1.797 6.191 4 7.432v1.649c-6.784 0.555-12 3.888-12 7.918h14v-2z"></path>
</symbol>
<symbol id="icon-search" viewBox="0 0 32 32">
<title>search</title>
<path d="M31.008 27.231l-7.58-6.447c-0.784-0.705-1.622-1.029-2.299-0.998 1.789-2.096 2.87-4.815 2.87-7.787 0-6.627-5.373-12-12-12s-12 5.373-12 12 5.373 12 12 12c2.972 0 5.691-1.081 7.787-2.87-0.031 0.677 0.293 1.515 0.998 2.299l6.447 7.58c1.104 1.226 2.907 1.33 4.007 0.23s0.997-2.903-0.23-4.007zM12 20c-4.418 0-8-3.582-8-8s3.582-8 8-8 8 3.582 8 8-3.582 8-8 8z"></path>
</symbol>
<symbol id="icon-facebook2" viewBox="0 0 32 32">
<title>facebook2</title>
<path d="M29 0h-26c-1.65 0-3 1.35-3 3v26c0 1.65 1.35 3 3 3h13v-14h-4v-4h4v-2c0-3.306 2.694-6 6-6h4v4h-4c-1.1 0-2 0.9-2 2v2h6l-1 4h-5v14h9c1.65 0 3-1.35 3-3v-26c0-1.65-1.35-3-3-3z"></path>
</symbol>
<symbol id="icon-instagram" viewBox="0 0 32 32">
<title>instagram</title>
<path d="M16 2.881c4.275 0 4.781 0.019 6.462 0.094 1.563 0.069 2.406 0.331 2.969 0.55 0.744 0.288 1.281 0.638 1.837 1.194 0.563 0.563 0.906 1.094 1.2 1.838 0.219 0.563 0.481 1.412 0.55 2.969 0.075 1.688 0.094 2.194 0.094 6.463s-0.019 4.781-0.094 6.463c-0.069 1.563-0.331 2.406-0.55 2.969-0.288 0.744-0.637 1.281-1.194 1.837-0.563 0.563-1.094 0.906-1.837 1.2-0.563 0.219-1.413 0.481-2.969 0.55-1.688 0.075-2.194 0.094-6.463 0.094s-4.781-0.019-6.463-0.094c-1.563-0.069-2.406-0.331-2.969-0.55-0.744-0.288-1.281-0.637-1.838-1.194-0.563-0.563-0.906-1.094-1.2-1.837-0.219-0.563-0.481-1.413-0.55-2.969-0.075-1.688-0.094-2.194-0.094-6.463s0.019-4.781 0.094-6.463c0.069-1.563 0.331-2.406 0.55-2.969 0.288-0.744 0.638-1.281 1.194-1.838 0.563-0.563 1.094-0.906 1.838-1.2 0.563-0.219 1.412-0.481 2.969-0.55 1.681-0.075 2.188-0.094 6.463-0.094zM16 0c-4.344 0-4.887 0.019-6.594 0.094-1.7 0.075-2.869 0.35-3.881 0.744-1.056 0.412-1.95 0.956-2.837 1.85-0.894 0.888-1.438 1.781-1.85 2.831-0.394 1.019-0.669 2.181-0.744 3.881-0.075 1.713-0.094 2.256-0.094 6.6s0.019 4.887 0.094 6.594c0.075 1.7 0.35 2.869 0.744 3.881 0.413 1.056 0.956 1.95 1.85 2.837 0.887 0.887 1.781 1.438 2.831 1.844 1.019 0.394 2.181 0.669 3.881 0.744 1.706 0.075 2.25 0.094 6.594 0.094s4.888-0.019 6.594-0.094c1.7-0.075 2.869-0.35 3.881-0.744 1.050-0.406 1.944-0.956 2.831-1.844s1.438-1.781 1.844-2.831c0.394-1.019 0.669-2.181 0.744-3.881 0.075-1.706 0.094-2.25 0.094-6.594s-0.019-4.887-0.094-6.594c-0.075-1.7-0.35-2.869-0.744-3.881-0.394-1.063-0.938-1.956-1.831-2.844-0.887-0.887-1.781-1.438-2.831-1.844-1.019-0.394-2.181-0.669-3.881-0.744-1.712-0.081-2.256-0.1-6.6-0.1v0z"></path>
<path d="M16 7.781c-4.537 0-8.219 3.681-8.219 8.219s3.681 8.219 8.219 8.219 8.219-3.681 8.219-8.219c0-4.537-3.681-8.219-8.219-8.219zM16 21.331c-2.944 0-5.331-2.387-5.331-5.331s2.387-5.331 5.331-5.331c2.944 0 5.331 2.387 5.331 5.331s-2.387 5.331-5.331 5.331z"></path>
<path d="M26.462 7.456c0 1.060-0.859 1.919-1.919 1.919s-1.919-0.859-1.919-1.919c0-1.060 0.859-1.919 1.919-1.919s1.919 0.859 1.919 1.919z"></path>
</symbol>
<symbol id="icon-telegram" viewBox="0 0 32 32">
<title>telegram</title>
<path d="M16 0c-8.838 0-16 7.162-16 16s7.162 16 16 16 16-7.163 16-16-7.163-16-16-16zM23.863 10.969l-2.625 12.369c-0.181 0.881-0.712 1.087-1.45 0.681l-4-2.956-1.919 1.869c-0.225 0.219-0.4 0.4-0.8 0.4-0.519 0-0.431-0.194-0.606-0.688l-1.363-4.475-3.956-1.231c-0.856-0.262-0.862-0.85 0.194-1.269l15.412-5.95c0.7-0.319 1.381 0.169 1.113 1.25z"></path>
</symbol>
<symbol id="icon-twitter" viewBox="0 0 32 32">
<title>twitter</title>
<path d="M32 7.075c-1.175 0.525-2.444 0.875-3.769 1.031 1.356-0.813 2.394-2.1 2.887-3.631-1.269 0.75-2.675 1.3-4.169 1.594-1.2-1.275-2.906-2.069-4.794-2.069-3.625 0-6.563 2.938-6.563 6.563 0 0.512 0.056 1.012 0.169 1.494-5.456-0.275-10.294-2.888-13.531-6.862-0.563 0.969-0.887 2.1-0.887 3.3 0 2.275 1.156 4.287 2.919 5.463-1.075-0.031-2.087-0.331-2.975-0.819 0 0.025 0 0.056 0 0.081 0 3.181 2.263 5.838 5.269 6.437-0.55 0.15-1.131 0.231-1.731 0.231-0.425 0-0.831-0.044-1.237-0.119 0.838 2.606 3.263 4.506 6.131 4.563-2.25 1.762-5.075 2.813-8.156 2.813-0.531 0-1.050-0.031-1.569-0.094 2.913 1.869 6.362 2.95 10.069 2.95 12.075 0 18.681-10.006 18.681-18.681 0-0.287-0.006-0.569-0.019-0.85 1.281-0.919 2.394-2.075 3.275-3.394z"></path>
</symbol>
<symbol id="icon-youtube" viewBox="0 0 32 32">
<title>youtube</title>
<path d="M31.681 9.6c0 0-0.313-2.206-1.275-3.175-1.219-1.275-2.581-1.281-3.206-1.356-4.475-0.325-11.194-0.325-11.194-0.325h-0.012c0 0-6.719 0-11.194 0.325-0.625 0.075-1.987 0.081-3.206 1.356-0.963 0.969-1.269 3.175-1.269 3.175s-0.319 2.588-0.319 5.181v2.425c0 2.587 0.319 5.181 0.319 5.181s0.313 2.206 1.269 3.175c1.219 1.275 2.819 1.231 3.531 1.369 2.563 0.244 10.881 0.319 10.881 0.319s6.725-0.012 11.2-0.331c0.625-0.075 1.988-0.081 3.206-1.356 0.962-0.969 1.275-3.175 1.275-3.175s0.319-2.587 0.319-5.181v-2.425c-0.006-2.588-0.325-5.181-0.325-5.181zM12.694 20.15v-8.994l8.644 4.513-8.644 4.481z"></path>
</symbol>
</defs>
</svg>
